<?xml version="1.0" encoding="UTF-8"?>
<!-- Generator: Adobe Illustrator 25.0.0, SVG Export Plug-In . SVG Version: 6.00 Build 0)  -->
<svg width="200.08" height="192.92" enable-background="new 0 0 200 200" version="1.1" viewBox="0 0 200.08 192.92" xml:space="preserve" xmlns="http://www.w3.org/2000/svg" xmlns:xlink="http://www.w3.org/1999/xlink"><defs><radialGradient id="radialGradient75416-5-2" cx="22.337" cy="597.84" r="55.656" gradientTransform="matrix(1 0 0 1.0037 0 -2.2151)" gradientUnits="userSpaceOnUse"><stop stop-color="#008000" offset="0"/><stop stop-color="#d400aa" offset="1"/></radialGradient><linearGradient id="linearGradient81632" x1="-59.778" x2="63.875" y1="559.41" y2="579.17" gradientUnits="userSpaceOnUse"><stop stop-color="#cf0" offset="0"/><stop stop-color="#caf" offset="1"/></linearGradient></defs>
<style type="text/css">
	.st0{fill:url(#SVGID_1_);}
	.st1{fill:#FEFEFE;}
	.st2{fill:#FFD72F;}
</style>
<linearGradient id="SVGID_1_" x1="21.456" x2="185.95" y1="15.326" y2="182.89" gradientUnits="userSpaceOnUse">
	<stop stop-color="#64A4FF" offset="0"/>
	<stop stop-color="#008080" offset="1"/>
</linearGradient><path transform="matrix(1.022 .20722 -.21459 1.0152 204.78 -513.67)" d="m61.483 633.67c182.36-200.35-306.37-99.359-59.848 12.577 246.52 111.94-1.7149-323.1-30.213-53.607-28.498 269.49 306.94-99.473 41.103-44.608-265.84 54.865 191.16 260.75 55.521 24.796-135.64-235.96-188.92 261.19-6.5636 60.842z" fill="url(#linearGradient81632)" fill-rule="evenodd" stroke="url(#radialGradient75416-5-2)" stroke-width="1.3844"/><g fill-opacity=".75" fill-rule="evenodd" stroke="#000" stroke-width=".74894pt"><path transform="matrix(.49537 -.011546 -.029765 -.49135 -47.742 48.265)" d="m295.68-76.006c0 6.1955-20.046-0.20057-24.427 4.1803s2.0152 24.427-4.1803 24.427c-6.1955 0 0.20057-20.046-4.1803-24.427-4.3809-4.3809-24.427 2.0152-24.427-4.1803s20.046 0.20057 24.427-4.1803c4.3809-4.3809-2.0152-24.427 4.1803-24.427 6.1955 0-0.20058 20.046 4.1803 24.427 4.3809 4.3809 24.427-2.0152 24.427 4.1803z" fill="#f00"/><path transform="matrix(.57851 0 0 -.56829 -37.462 64.022)" d="m295.68-76.006c0 6.1955-20.046-0.20057-24.427 4.1803s2.0152 24.427-4.1803 24.427c-6.1955 0 0.20057-20.046-4.1803-24.427-4.3809-4.3809-24.427 2.0152-24.427-4.1803s20.046 0.20057 24.427-4.1803c4.3809-4.3809-2.0152-24.427 4.1803-24.427 6.1955 0-0.20058 20.046 4.1803 24.427 4.3809 4.3809 24.427-2.0152 24.427 4.1803z" fill="#fc0"/><path transform="matrix(.69393 0 0 -.7238 -114.16 44.045)" d="m295.68-76.006c0 6.1955-20.046-0.20057-24.427 4.1803s2.0152 24.427-4.1803 24.427c-6.1955 0 0.20057-20.046-4.1803-24.427-4.3809-4.3809-24.427 2.0152-24.427-4.1803s20.046 0.20057 24.427-4.1803c4.3809-4.3809-2.0152-24.427 4.1803-24.427 6.1955 0-0.20058 20.046 4.1803 24.427 4.3809 4.3809 24.427-2.0152 24.427 4.1803z" fill="#95f"/><path transform="matrix(.50396 0 0 -.60026 -30.502 41.183)" d="m295.68-76.006c0 6.1955-20.046-0.20057-24.427 4.1803s2.0152 24.427-4.1803 24.427c-6.1955 0 0.20057-20.046-4.1803-24.427-4.3809-4.3809-24.427 2.0152-24.427-4.1803s20.046 0.20057 24.427-4.1803c4.3809-4.3809-2.0152-24.427 4.1803-24.427 6.1955 0-0.20058 20.046 4.1803 24.427 4.3809 4.3809 24.427-2.0152 24.427 4.1803z" fill="#6f0"/><path transform="matrix(.50447 0 0 -.53763 2.3652 53.446)" d="m295.68-76.006c0 6.1955-20.046-0.20057-24.427 4.1803s2.0152 24.427-4.1803 24.427c-6.1955 0 0.20057-20.046-4.1803-24.427-4.3809-4.3809-24.427 2.0152-24.427-4.1803s20.046 0.20057 24.427-4.1803c4.3809-4.3809-2.0152-24.427 4.1803-24.427 6.1955 0-0.20058 20.046 4.1803 24.427 4.3809 4.3809 24.427-2.0152 24.427 4.1803z" fill="#06f"/><path transform="matrix(.55737 0 0 -.55804 -53.491 69.814)" d="m295.68-76.006c0 6.1955-20.046-0.20057-24.427 4.1803s2.0152 24.427-4.1803 24.427c-6.1955 0 0.20057-20.046-4.1803-24.427-4.3809-4.3809-24.427 2.0152-24.427-4.1803s20.046 0.20057 24.427-4.1803c4.3809-4.3809-2.0152-24.427 4.1803-24.427 6.1955 0-0.20058 20.046 4.1803 24.427 4.3809 4.3809 24.427-2.0152 24.427 4.1803z" fill="#37abc8"/><path transform="matrix(.4719 0 0 -.6319 -4.453 34.346)" d="m295.68-76.006c0 6.1955-20.046-0.20057-24.427 4.1803s2.0152 24.427-4.1803 24.427c-6.1955 0 0.20057-20.046-4.1803-24.427-4.3809-4.3809-24.427 2.0152-24.427-4.1803s20.046 0.20057 24.427-4.1803c4.3809-4.3809-2.0152-24.427 4.1803-24.427 6.1955 0-0.20058 20.046 4.1803 24.427 4.3809 4.3809 24.427-2.0152 24.427 4.1803z" fill="#f60"/></g></svg>
