<?xml version="1.0" encoding="UTF-8"?>
<!-- Generator: Adobe Illustrator 25.0.0, SVG Export Plug-In . SVG Version: 6.00 Build 0)  -->
<svg enable-background="new 0 0 200 200" version="1.1" viewBox="0 0 200 200" xml:space="preserve" xmlns="http://www.w3.org/2000/svg"><defs><linearGradient id="linearGradient4415" x1="-33.321" x2="77.994" y1="597.84" y2="597.84" gradientUnits="userSpaceOnUse"><stop stop-color="#d4ff2a" offset="0"/><stop stop-color="#b380ff" offset="1"/></linearGradient><radialGradient id="radialGradient75416-5" cx="22.337" cy="597.84" r="55.656" gradientTransform="matrix(1 0 0 1.0037 0 -2.2151)" gradientUnits="userSpaceOnUse"><stop stop-color="#008000" offset="0"/><stop stop-color="#d400aa" offset="1"/></radialGradient><marker id="Arrow1Sstart-2" overflow="visible" orient="auto"><path transform="matrix(.2 0 0 .2 1.2 0)" d="m0 0 5-5-17.5 5 17.5 5z" fill="context-stroke" fill-rule="evenodd" stroke="context-stroke" stroke-width="1pt"/></marker></defs>
<style type="text/css">
	.st0{fill:url(#SVGID_1_);}
	.st1{fill:#FEFEFE;}
	.st2{fill:#FFD72F;}
</style>
<linearGradient id="SVGID_1_" x1="21.456" x2="185.95" y1="15.326" y2="182.89" gradientUnits="userSpaceOnUse">
	<stop stop-color="#64A4FF" offset="0"/>
	<stop stop-color="#008080" offset="1"/>
</linearGradient><g fill-rule="evenodd">




<path transform="matrix(1.7554 .30336 -.30336 1.7554 241.69 -955.12)" d="m44.373 620.35c111.75-112.83-176.62-65.231-35.285 5.3177 141.33 70.548 7.6661-188.75-16.076-31.811-23.743 156.94 181.56-49.874 25.297-25.024-156.26 24.85 102.16 157.47 31.647 16.12-70.512-141.35-117.33 148.23-5.5833 35.398z" fill="url(#linearGradient4415)" marker-start="url(#Arrow1Sstart-2)" stroke="url(#radialGradient75416-5)"/><g fill-opacity=".75" stroke="#000" stroke-width=".74894pt"><path transform="matrix(.50492 -.011984 -.030339 -.50998 -50.691 50.719)" d="m295.68-76.006c0 6.1955-20.046-0.20057-24.427 4.1803s2.0152 24.427-4.1803 24.427 0.20057-20.046-4.1803-24.427c-4.3809-4.3809-24.427 2.0152-24.427-4.1803s20.046 0.20057 24.427-4.1803c4.3809-4.3809-2.0152-24.427 4.1803-24.427s-0.20058 20.046 4.1803 24.427c4.3809 4.3809 24.427-2.0152 24.427 4.1803z" fill="#a00"/><path transform="matrix(.58966 0 0 -.58983 -40.213 67.073)" d="m295.68-76.006c0 6.1955-20.046-0.20057-24.427 4.1803s2.0152 24.427-4.1803 24.427 0.20057-20.046-4.1803-24.427c-4.3809-4.3809-24.427 2.0152-24.427-4.1803s20.046 0.20057 24.427-4.1803c4.3809-4.3809-2.0152-24.427 4.1803-24.427s-0.20058 20.046 4.1803 24.427c4.3809 4.3809 24.427-2.0152 24.427 4.1803z" fill="#fc0"/><path transform="matrix(.70731 0 0 -.75124 -118.39 46.339)" d="m295.68-76.006c0 6.1955-20.046-0.20057-24.427 4.1803s2.0152 24.427-4.1803 24.427 0.20057-20.046-4.1803-24.427c-4.3809-4.3809-24.427 2.0152-24.427-4.1803s20.046 0.20057 24.427-4.1803c4.3809-4.3809-2.0152-24.427 4.1803-24.427s-0.20058 20.046 4.1803 24.427c4.3809 4.3809 24.427-2.0152 24.427 4.1803z" fill="#95f"/><path transform="matrix(.51367 0 0 -.62302 -33.118 43.368)" d="m295.68-76.006c0 6.1955-20.046-0.20057-24.427 4.1803s2.0152 24.427-4.1803 24.427 0.20057-20.046-4.1803-24.427c-4.3809-4.3809-24.427 2.0152-24.427-4.1803s20.046 0.20057 24.427-4.1803c4.3809-4.3809-2.0152-24.427 4.1803-24.427s-0.20058 20.046 4.1803 24.427c4.3809 4.3809 24.427-2.0152 24.427 4.1803z" fill="#6f0"/><path transform="matrix(.51419 0 0 -.558 .38234 56.096)" d="m295.68-76.006c0 6.1955-20.046-0.20057-24.427 4.1803s2.0152 24.427-4.1803 24.427 0.20057-20.046-4.1803-24.427c-4.3809-4.3809-24.427 2.0152-24.427-4.1803s20.046 0.20057 24.427-4.1803c4.3809-4.3809-2.0152-24.427 4.1803-24.427s-0.20058 20.046 4.1803 24.427c4.3809 4.3809 24.427-2.0152 24.427 4.1803z" fill="#06f"/><path transform="matrix(.56811 0 0 -.57919 -56.55 73.084)" d="m295.68-76.006c0 6.1955-20.046-0.20057-24.427 4.1803s2.0152 24.427-4.1803 24.427 0.20057-20.046-4.1803-24.427c-4.3809-4.3809-24.427 2.0152-24.427-4.1803s20.046 0.20057 24.427-4.1803c4.3809-4.3809-2.0152-24.427 4.1803-24.427s-0.20058 20.046 4.1803 24.427c4.3809 4.3809 24.427-2.0152 24.427 4.1803z" fill="#37abc8"/></g><path transform="matrix(.48099 0 0 -.65585 -6.5673 36.272)" d="m295.68-76.006c0 6.1955-20.046-0.20057-24.427 4.1803s2.0152 24.427-4.1803 24.427 0.20057-20.046-4.1803-24.427c-4.3809-4.3809-24.427 2.0152-24.427-4.1803s20.046 0.20057 24.427-4.1803c4.3809-4.3809-2.0152-24.427 4.1803-24.427s-0.20058 20.046 4.1803 24.427c4.3809 4.3809 24.427-2.0152 24.427 4.1803z" fill="#ff7f2a" fill-opacity=".89474" stroke="#000" stroke-width=".74894pt"/></g></svg>
